# xmcd
#
# Track frame offsets: 
#        150
#        21018
#        39598
#        66511
#        92887
#        113443
#        131246
#        157967
#        180175
#        196589
#        220055
#        244884
#
# Disc length: 3559 seconds
#
# Revision: 1
# Processed by: cddbd v1.5.2PL0 Copyright (c) Steve Scherf et al.
# Submitted via: ExactAudioCopyFreeDBPlugin 1.0
#
DISCID=9a0de50c
DTITLE=Rokoko - Giesmes I sventaji kalna
DYEAR=2006
DGENRE=Gospel
TTITLE0=I sventaji kalna
TTITLE1=Dziaugdamies semsite vandeni
TTITLE2=Viespatie, atsiusk savo dvasia
TTITLE3=Sutverki sirdi
TTITLE4=Kai Dievas zenge aukstyn
TTITLE5=Angelu psalme
TTITLE6=Piemenu psalme
TTITLE7=Prie Babilonijos upiu
TTITLE8=Kyrie eleison
TTITLE9=Lopsine
TTITLE10=Salve Regina
TTITLE11=Aleliuja
EXTD=2006 Ðiauliø vaikø muzikinë studija "Ro ko ko"\nAuðros al. 31, LT
EXTD=76300 Ðiauliai. El. paðtas: saroko@omni.lt\n(C)(P) LATGA - A, RO
EXTD=KOKO
EXTT0=
EXTT1=
EXTT2=
EXTT3=
EXTT4=
EXTT5=
EXTT6=
EXTT7=
EXTT8=
EXTT9=
EXTT10=
EXTT11=
PLAYORDER=
